<svg width="10" height="11" viewBox="0 0 10 11" fill="none" xmlns="http://www.w3.org/2000/svg">
<g id="check_circle">
<mask id="mask0_403_12267" style="mask-type:alpha" maskUnits="userSpaceOnUse" x="0" y="0" width="10" height="11">
<rect id="Bounding box" y="0.5" width="10" height="10" fill="#D9D9D9"/>
</mask>
<g mask="url(#mask0_403_12267)">
<path id="check_circle_2" d="M4.41683 7.41634L7.35433 4.47884L6.771 3.89551L4.41683 6.24967L3.22933 5.06217L2.646 5.64551L4.41683 7.41634ZM5.00016 9.66634C4.42377 9.66634 3.88211 9.55697 3.37516 9.33822C2.86822 9.11947 2.42725 8.82259 2.05225 8.44759C1.67725 8.07259 1.38037 7.63162 1.16162 7.12467C0.942871 6.61773 0.833496 6.07606 0.833496 5.49967C0.833496 4.92329 0.942871 4.38162 1.16162 3.87467C1.38037 3.36773 1.67725 2.92676 2.05225 2.55176C2.42725 2.17676 2.86822 1.87988 3.37516 1.66113C3.88211 1.44238 4.42377 1.33301 5.00016 1.33301C5.57655 1.33301 6.11822 1.44238 6.62516 1.66113C7.13211 1.87988 7.57308 2.17676 7.94808 2.55176C8.32308 2.92676 8.61995 3.36773 8.8387 3.87467C9.05745 4.38162 9.16683 4.92329 9.16683 5.49967C9.16683 6.07606 9.05745 6.61773 8.8387 7.12467C8.61995 7.63162 8.32308 8.07259 7.94808 8.44759C7.57308 8.82259 7.13211 9.11947 6.62516 9.33822C6.11822 9.55697 5.57655 9.66634 5.00016 9.66634ZM5.00016 8.83301C5.93072 8.83301 6.71891 8.51009 7.36475 7.86426C8.01058 7.21842 8.3335 6.43023 8.3335 5.49967C8.3335 4.56912 8.01058 3.78092 7.36475 3.13509C6.71891 2.48926 5.93072 2.16634 5.00016 2.16634C4.06961 2.16634 3.28141 2.48926 2.63558 3.13509C1.98975 3.78092 1.66683 4.56912 1.66683 5.49967C1.66683 6.43023 1.98975 7.21842 2.63558 7.86426C3.28141 8.51009 4.06961 8.83301 5.00016 8.83301Z" fill="#1AA562"/>
</g>
</g>
</svg>
